<svg xmlns="http://www.w3.org/2000/svg" viewBox="0 0 205.82 87.54"><g id="Layer_2" data-name="Layer 2"><g id="Layer_1-2" data-name="Layer 1"><path d="M73.55,53.36V36.6c0-8.82-5.21-12.82-12.22-12.82-4.27,0-7.83,1.43-10.08,4.11V24.11H44.73V53.36h6.85V38.57c0-5.86,3.29-8.82,8.16-8.82,4.39,0,7,2.52,7,7.73v11h0V62.65H38.06a3.38,3.38,0,0,0-2.3.9L23.27,75.11l1.26-8.57a3.34,3.34,0,0,0-.79-2.71,3.38,3.38,0,0,0-2.57-1.18H12.58c-3.19,0-5.79-3.32-5.79-7.39V14.19c0-4.08,2.6-7.4,5.79-7.4H77.47c3.19,0,5.79,3.32,5.79,7.4V24.33H78.43v5.48h4.82V43.89c0,6.46,3.67,9.86,10.08,9.86a10.72,10.72,0,0,0,6.57-2L98,46.9a6.16,6.16,0,0,1-3.83,1.2c-2.63,0-4.05-1.53-4.05-4.38V29.81h7.83V24.33H90.05V14.19C90.05,6.36,84.41,0,77.47,0H12.58C5.64,0,0,6.36,0,14.19V55.26c0,7.82,5.64,14.18,12.58,14.18h4.66L15.15,83.65a3.4,3.4,0,0,0,1.77,3.5,3.46,3.46,0,0,0,1.59.39,3.4,3.4,0,0,0,2.3-.9l18.58-17.2h27.3V86.83H93.86v-6H73.55Z" style="fill:#fff"/><path d="M111.72,57.25c-9,0-15.56,6.19-15.56,15s6.57,15,15.56,15,15.61-6.25,15.61-15S120.81,57.25,111.72,57.25Zm0,24.11c-4.93,0-8.66-3.57-8.66-9.15s3.73-9.15,8.66-9.15,8.71,3.56,8.71,9.15S116.7,81.36,111.72,81.36Z" style="fill:#fff"/><path d="M147.26,63.06a8.28,8.28,0,0,1,7.29,4l5.26-3.06c-2.25-4.44-6.79-6.8-12.49-6.8-9.26,0-15.83,6.19-15.83,15s6.57,15,15.83,15c5.7,0,10.24-2.47,12.49-6.85l-5.26-3.07a8.27,8.27,0,0,1-7.29,4.06c-5,0-8.87-3.46-8.87-9.15S142.23,63.06,147.26,63.06Z" style="fill:#fff"/><path d="M176.9,57.25c-4.71,0-9.26,1.21-12.38,3.62l2.68,5a14.54,14.54,0,0,1,8.88-2.9c4.87,0,7.28,2.36,7.28,6.35v.44H175.8c-8.87,0-12.16,3.84-12.16,8.71,0,5.1,4.22,8.77,10.9,8.77,4.38,0,7.56-1.43,9.2-4v3.56h6.47V69.69C190.21,61.25,185.33,57.25,176.9,57.25Zm6.46,20.44c-1.15,3-4.05,4.54-7.39,4.54-3.51,0-5.59-1.59-5.59-4,0-2.14,1.26-3.89,5.91-3.89h7.07Z" style="fill:#fff"/><rect x="198.97" y="46.19" width="6.85" height="40.64" style="fill:#fff"/><polygon points="38 20.99 38 15.02 16.8 15.02 16.8 20.99 23.87 20.99 23.87 47.39 16.8 47.39 16.8 53.36 38 53.36 38 47.39 30.93 47.39 30.93 20.99 38 20.99" style="fill:#fff"/><path d="M118.41,47.94c-5.1,0-8.66-2.74-9.48-7h22.95c.06-.66.11-1.48.11-2,0-9.15-6.24-15.12-14.79-15.12-8.71,0-15.12,6.25-15.12,15s6.36,15,16.16,15c5,0,9.15-1.65,11.78-4.77l-3.67-4.22A10.47,10.47,0,0,1,118.41,47.94ZM117.2,29.26a8,8,0,0,1,8.27,7.12H108.88A8.08,8.08,0,0,1,117.2,29.26Z" style="fill:#fff"/><path d="M145.41,39.17c0-6,3.29-9,8.49-9a8.64,8.64,0,0,1,1.59.16V23.78c-4.88,0-8.44,1.54-10.41,4.6V24.11h-6.52V53.36h6.85Z" style="fill:#fff"/></g></g></svg>